<svg width="51" height="51" viewBox="0 0 51 51" fill="none" xmlns="http://www.w3.org/2000/svg">
<g clip-path="url(#clip0_23_43)">
<path d="M19.125 44.625C19.125 45.6875 19.975 46.75 21.25 46.75H29.75C31.025 46.75 31.875 45.6875 31.875 44.625V42.5H19.125V44.625ZM25.5 4.25C17.2125 4.25 10.625 10.8375 10.625 19.125C10.625 24.225 13.175 28.6875 17 31.2375V36.125C17 37.1875 17.85 38.25 19.125 38.25H31.875C33.15 38.25 34 37.1875 34 36.125V31.2375C37.825 28.475 40.375 24.0125 40.375 19.125C40.375 10.8375 33.7875 4.25 25.5 4.25Z" fill="white"/>
</g>
<defs>
<clipPath id="clip0_23_43">
<rect width="51" height="51" fill="white"/>
</clipPath>
</defs>
</svg>
